# xmcd
#
# Track frame offsets: 
#        150
#        19012
#        39331
#        54787
#        65095
#        79992
#        96064
#        111064
#        126946
#        146049
#        164901
#
# Disc length: 2419 seconds
#
# Revision: 0
# Processed by: cddbd v1.5.1PL2 Copyright (c) Steve Scherf et al.
# Submitted via: ExactAudioCopy v0.95a4
#
DISCID=9609710b
DTITLE=Desert Heat - Forever Road
DYEAR=2005
DGENRE=Country
TTITLE0=Gone (But Not Forgotten)
TTITLE1=Summer
TTITLE2=Forever Road
TTITLE3=Every Little Thing
TTITLE4=How You Do It
TTITLE5=Just Like The First Time
TTITLE6=When You Come Around
TTITLE7=Once Upon A Time
TTITLE8=Rain'n'Whiskey
TTITLE9=Wiggle It
TTITLE10=Gonna Getcha Back
EXTD=
EXTT0=
EXTT1=
EXTT2=
EXTT3=
EXTT4=
EXTT5=
EXTT6=
EXTT7=
EXTT8=
EXTT9=
EXTT10=
PLAYORDER=
